<svg xmlns="http://www.w3.org/2000/svg" viewBox="0 0 250 86" enable-background="new 0 0 250 86"><style type="text/css">.st0{fill:#BCFF15;}</style><path class="st0" d="M28.7 16.4c-13 5.2-19.6 12.3-19.6 21.5 0 4.3 1.7 6.4 5.2 6.4 4.2 0 6.4-1.6 6.4-4.8 0-1.4-.3-2.6-.9-3.5-.6-1-1-2.2-1-3.8 0-3.2 2.6-4.8 7.8-4.8 5.4 0 8.7 4.1 9.9 12.2 3 19.3 10.3 29 21.7 29 5.8 0 9.9-.8 12.3-2.3 3.2-2.1 4.8-4.8 4.8-8.3 0-2.3-.8-5.5-2.5-9.8 3 2.5 5.6 4.3 7.9 5.4 2.2 1 4.9 1.5 8.1 1.5.2 1.3 2.1 3 5.6 5.1 7.6 4.5 11.4 7.7 11.4 9.7 0 1.9-.3 3.5-1 5.1 5.2 0 7.8-2.7 7.8-8.1 0-3.7-1.9-6-5.7-6.9-3.2-.7-5.8-1.6-7.6-2.5-1.9-1-3.3-1.9-4.1-2.9 3.3-.1 7-1.7 11.1-4.9 5.4-4.2 8.8-10.1 10.4-17.6h15.3v-5.7h-14.9c-1.1-9.1-4.4-13.6-10.1-13.6-7.7 0-11.5 2-11.5 6 0 2.6.2 4.7.6 6.3 2.1-2.3 4.3-3.4 6.6-3.4 3.5 0 6 1.9 7.3 5.6-5.3.8-10.5 3.9-15.6 9.3-4 4.2-5.9 8.7-5.8 13.3h-.3c-2 0-3.9-.5-6-1.6-2.9-1.5-5.6-3.7-8.1-6.6 6.3-3.5 9.4-7.1 9.4-10.7 0-13.5-9.9-20.2-29.6-20.2-7.5 0-15.9 1.9-25.3 5.6zm65.8 32.2c0-2.8 1.6-5.6 4.8-8.6 3.3-3.1 7-5.4 11.2-6.9-1.4 5.5-3.9 9.5-7.4 12.2-2.4 1.9-5.2 3.2-8.6 4 .1-.3 0-.5 0-.7zM196 10.8c-19.8 0-29.6 6.7-29.6 20.2 0 3.7 3.1 7.2 9.4 10.7-2.5 2.9-5.2 5.1-8.1 6.6-2 1.1-4 1.6-6 1.6h-.3c.1-4.6-1.8-9-5.8-13.3-5.1-5.4-10.3-8.5-15.6-9.3 1.3-3.8 3.8-5.6 7.3-5.6 2.3 0 4.5 1.1 6.6 3.4.4-1.6.6-3.7.6-6.3 0-4-3.8-6-11.5-6-5.7 0-9 4.5-10.1 13.6h-2.9v5.7h3.1c1.6 7.5 5.1 13.4 10.4 17.6 4.1 3.2 7.8 4.8 11.1 4.9-.8 1-2.1 1.9-4.1 2.9-1.9 1-4.4 1.8-7.6 2.5-3.8.9-5.7 3.2-5.7 6.9 0 5.4 2.6 8.1 7.8 8.1-.6-1.5-1-3.2-1-5.1 0-2 3.8-5.2 11.4-9.7 3.5-2.1 5.4-3.8 5.6-5.1 3.2 0 5.9-.5 8.1-1.5 2.3-1.1 4.9-2.9 7.9-5.4-1.6 4.2-2.5 7.5-2.5 9.8 0 3.4 1.6 6.2 4.8 8.3 2.4 1.5 6.5 2.3 12.3 2.3 11.4 0 18.7-9.7 21.7-29 1.3-8.2 4.6-12.2 9.9-12.2 5.2 0 7.8 1.6 7.8 4.8 0 1.6-.3 2.9-1 3.8-.6.9-.9 2.1-.9 3.5 0 3.2 2.1 4.8 6.4 4.8 3.5 0 5.2-2.1 5.2-6.4 0-9.2-6.5-16.3-19.6-21.5-9.2-3.7-17.6-5.6-25.1-5.6zm-40.6 38.5c-3.3-.7-6.2-2.1-8.6-4-3.5-2.7-6-6.8-7.4-12.2 4.2 1.5 7.9 3.8 11.2 6.9 3.2 3 4.8 5.8 4.8 8.6.1.2 0 .4 0 .7z"/></svg>