<?xml version="1.0" encoding="utf-8"?>
<!-- Generator: Adobe Illustrator 18.1.1, SVG Export Plug-In . SVG Version: 6.00 Build 0)  -->
<!DOCTYPE svg PUBLIC "-//W3C//DTD SVG 1.1//EN" "http://www.w3.org/Graphics/SVG/1.1/DTD/svg11.dtd">
<svg version="1.1" id="Layer_1" xmlns="http://www.w3.org/2000/svg" xmlns:xlink="http://www.w3.org/1999/xlink" x="0px" y="0px"
	 viewBox="0 0 250 86" style="enable-background:new 0 0 250 86;" xml:space="preserve">
<style type="text/css">
	.st0{fill:#BCFF15;}
</style>
<g>
	<g>
		<path class="st0" d="M28.7,69.6C15.7,64.4,9.1,57.3,9.1,48.1c0-4.3,1.7-6.4,5.2-6.4c4.2,0,6.4,1.6,6.4,4.8c0,1.4-0.3,2.6-0.9,3.5
			c-0.6,1-1,2.2-1,3.8c0,3.2,2.6,4.8,7.8,4.8c5.4,0,8.7-4.1,9.9-12.2c3-19.3,10.3-29,21.7-29c5.8,0,9.9,0.8,12.3,2.3
			c3.2,2.1,4.8,4.8,4.8,8.3c0,2.3-0.8,5.5-2.5,9.8c3-2.5,5.6-4.3,7.9-5.4c2.2-1,4.9-1.5,8.1-1.5c0.2-1.3,2.1-3,5.6-5.1
			c7.6-4.5,11.4-7.7,11.4-9.7c0-1.9-0.3-3.5-1-5.1c5.2,0,7.8,2.7,7.8,8.1c0,3.7-1.9,6-5.7,6.9c-3.2,0.7-5.8,1.6-7.6,2.5
			c-1.9,1-3.3,1.9-4.1,2.9c3.3,0.1,7,1.7,11.1,4.9c5.4,4.2,8.8,10.1,10.4,17.6H132v5.7h-14.9c-1.1,9.1-4.4,13.6-10.1,13.6
			c-7.7,0-11.5-2-11.5-6c0-2.6,0.2-4.7,0.6-6.3c2.1,2.3,4.3,3.4,6.6,3.4c3.5,0,6-1.9,7.3-5.6c-5.3-0.8-10.5-3.9-15.6-9.3
			c-4-4.2-5.9-8.7-5.8-13.3h-0.3c-2,0-3.9,0.5-6,1.6c-2.9,1.5-5.6,3.7-8.1,6.6c6.3,3.5,9.4,7.1,9.4,10.7c0,13.5-9.9,20.2-29.6,20.2
			C46.5,75.2,38.1,73.3,28.7,69.6z M94.5,37.4c0,2.8,1.6,5.6,4.8,8.6c3.3,3.1,7,5.4,11.2,6.9c-1.4-5.5-3.9-9.5-7.4-12.2
			c-2.4-1.9-5.2-3.2-8.6-4C94.6,37,94.5,37.2,94.5,37.4z"/>
	</g>
	<g>
		<path class="st0" d="M196,75.2c-19.8,0-29.6-6.7-29.6-20.2c0-3.7,3.1-7.2,9.4-10.7c-2.5-2.9-5.2-5.1-8.1-6.6c-2-1.1-4-1.6-6-1.6
			h-0.3c0.1,4.6-1.8,9-5.8,13.3c-5.1,5.4-10.3,8.5-15.6,9.3c1.3,3.8,3.8,5.6,7.3,5.6c2.3,0,4.5-1.1,6.6-3.4c0.4,1.6,0.6,3.7,0.6,6.3
			c0,4-3.8,6-11.5,6c-5.7,0-9-4.5-10.1-13.6H130v-5.7h3.1c1.6-7.5,5.1-13.4,10.4-17.6c4.1-3.2,7.8-4.8,11.1-4.9
			c-0.8-1-2.1-1.9-4.1-2.9c-1.9-1-4.4-1.8-7.6-2.5c-3.8-0.9-5.7-3.2-5.7-6.9c0-5.4,2.6-8.1,7.8-8.1c-0.6,1.5-1,3.2-1,5.1
			c0,2,3.8,5.2,11.4,9.7c3.5,2.1,5.4,3.8,5.6,5.1c3.2,0,5.9,0.5,8.1,1.5c2.3,1.1,4.9,2.9,7.9,5.4c-1.6-4.2-2.5-7.5-2.5-9.8
			c0-3.4,1.6-6.2,4.8-8.3c2.4-1.5,6.5-2.3,12.3-2.3c11.4,0,18.7,9.7,21.7,29c1.3,8.2,4.6,12.2,9.9,12.2c5.2,0,7.8-1.6,7.8-4.8
			c0-1.6-0.3-2.9-1-3.8c-0.6-0.9-0.9-2.1-0.9-3.5c0-3.2,2.1-4.8,6.4-4.8c3.5,0,5.2,2.1,5.2,6.4c0,9.2-6.5,16.3-19.6,21.5
			C211.9,73.3,203.5,75.2,196,75.2z M155.4,36.7c-3.3,0.7-6.2,2.1-8.6,4c-3.5,2.7-6,6.8-7.4,12.2c4.2-1.5,7.9-3.8,11.2-6.9
			c3.2-3,4.8-5.8,4.8-8.6C155.5,37.2,155.4,37,155.4,36.7z"/>
	</g>
</g>
<g>
</g>
<g>
</g>
<g>
</g>
<g>
</g>
<g>
</g>
<g>
</g>
<g>
</g>
<g>
</g>
<g>
</g>
<g>
</g>
<g>
</g>
<g>
</g>
<g>
</g>
<g>
</g>
<g>
</g>
</svg>
